# xmcd
#
# Track frame offsets: 
#        150
#        9242
#        22332
#        35716
#        47680
#        66011
#        74192
#        87531
#        107857
#        119380
#        134936
#        148784
#        164753
#        185677
#        200879
#
# Disc length: 2876 seconds
#
# Revision: 0
# Processed by: cddbd v1.5.2PL0 Copyright (c) Steve Scherf et al.
# Submitted via: ExactAudioCopyFreeDBPlugin 1.0
#
DISCID=fc0b3a0f
DTITLE=Burying Ground (The) - Big City Blues
DYEAR=2015
DGENRE=Blues
TTITLE0=Big City Blues
TTITLE1=Honey
TTITLE2=How Long
TTITLE3=St. James Infirmary
TTITLE4=Lost in the Shadows
TTITLE5=Been So Lonesome
TTITLE6=Slipknot
TTITLE7=Behind These Eyes
TTITLE8=Vagrant's Blues
TTITLE9=Keep Your Troubles at Bay
TTITLE10=Lost Lover Blues
TTITLE11=One Kind Favour
TTITLE12=Always Be Blue
TTITLE13=Weeping Willow
TTITLE14=Goodbye Baby, Hello Blues
EXTD=
EXTT0=
EXTT1=
EXTT2=
EXTT3=
EXTT4=
EXTT5=
EXTT6=
EXTT7=
EXTT8=
EXTT9=
EXTT10=
EXTT11=
EXTT12=
EXTT13=
EXTT14=
PLAYORDER=
